{
    "asset" : {
        "generator" : "Khronos glTF Blender I/O v3.2.40",
        "version" : "2.0"
    },
    "scene" : 0,
    "scenes" : [
        {
            "name" : "Scene",
            "nodes" : [
                0
            ]
        }
    ],
    "nodes" : [
        {
            "mesh" : 0,
            "name" : "Curve",
            "rotation" : [
                0.5,
                0.5,
                -0.5,
                0.5
            ],
            "scale" : [
                3.819453239440918,
                1,
                3.819453239440918
            ],
            "translation" : [
                -0.530109167098999,
                0.09232518076896667,
                6.332822799682617
            ]
        }
    ],
    "materials" : [
        {
            "doubleSided" : true,
            "name" : "SVGMat",
            "pbrMetallicRoughness" : {
                "baseColorFactor" : [
                    0,
                    0,
                    0,
                    1
                ],
                "metallicFactor" : 0,
                "roughnessFactor" : 0.4000000059604645
            }
        }
    ],
    "meshes" : [
        {
            "name" : "Curve",
            "primitives" : [
                {
                    "attributes" : {
                        "POSITION" : 0,
                        "NORMAL" : 1,
                        "TEXCOORD_0" : 2
                    },
                    "indices" : 3,
                    "material" : 0
                }
            ]
        }
    ],
    "accessors" : [
        {
            "bufferView" : 0,
            "componentType" : 5126,
            "count" : 1872,
            "max" : [
                3.183112144470215,
                1.4199999570846558,
                0.00021926104091107845
            ],
            "min" : [
                0.00010124300024472177,
                -1.4199999570846558,
                -3.6305716037750244
            ],
            "type" : "VEC3"
        },
        {
            "bufferView" : 1,
            "componentType" : 5126,
            "count" : 1872,
            "type" : "VEC3"
        },
        {
            "bufferView" : 2,
            "componentType" : 5126,
            "count" : 1872,
            "type" : "VEC2"
        },
        {
            "bufferView" : 3,
            "componentType" : 5123,
            "count" : 3312,
            "type" : "SCALAR"
        }
    ],
    "bufferViews" : [
        {
            "buffer" : 0,
            "byteLength" : 22464,
            "byteOffset" : 0
        },
        {
            "buffer" : 0,
            "byteLength" : 22464,
            "byteOffset" : 22464
        },
        {
            "buffer" : 0,
            "byteLength" : 14976,
            "byteOffset" : 44928
        },
        {
            "buffer" : 0,
            "byteLength" : 6624,
            "byteOffset" : 59904
        }
    ],
    "buffers" : [
        {
            "byteLength" : 66528,
            "uri" : "data:application/octet-stream;base64,"
        }
    ]
}
